<?xml version="1.0" standalone="no"?>
<svg viewBox="0 0 1024 1024" version="1.1" xmlns="http://www.w3.org/2000/svg" width="48" height="48">
    <path
        d="M512 1023.99104a501.751219 501.751219 0 0 1-199.356511-39.9993 513.783009 513.783009 0 0 1-163.069146-109.566082 513.783009 513.783009 0 0 1-109.566083-163.069147A501.751219 501.751219 0 0 1 0.00896 512a501.751219 501.751219 0 0 1 39.9993-199.356511 513.783009 513.783009 0 0 1 109.566083-163.069147A513.783009 513.783009 0 0 1 312.643489 40.00826 501.751219 501.751219 0 0 1 512 0.00896a501.751219 501.751219 0 0 1 199.356511 39.9993 513.783009 513.783009 0 0 1 163.069147 109.566082 513.783009 513.783009 0 0 1 109.566082 163.069147A501.751219 501.751219 0 0 1 1023.99104 512a501.751219 501.751219 0 0 1-39.9993 199.356511 513.783009 513.783009 0 0 1-109.566082 163.069147 513.783009 513.783009 0 0 1-163.069147 109.566082A501.751219 501.751219 0 0 1 512 1023.99104zM512 219.461119c-20.287645 0-37.567343 7.039877-51.839093 21.311627a70.526766 70.526766 0 0 0-21.311627 51.839093c0 20.287645 7.103876 37.567343 21.311627 51.775094 14.27175 14.207751 31.551448 21.311627 51.839093 21.311627 20.287645 0 37.567343-7.039877 51.839093-21.311627 14.207751-14.207751 21.311627-31.487449 21.311627-51.839093 0-20.287645-7.103876-37.567343-21.311627-51.839092A70.526766 70.526766 0 0 0 512 219.525118z m59.070966 275.387181c0-15.551728-5.759899-28.799496-17.279697-39.679305A58.558975 58.558975 0 0 0 512 438.84928a58.558975 58.558975 0 0 0-41.855267 16.319715 52.671078 52.671078 0 0 0-17.279698 39.679305v261.435425c0 15.551728 5.759899 28.799496 17.279698 39.679306 11.519798 10.87981 25.471554 16.319714 41.855267 16.319714a58.558975 58.558975 0 0 0 41.855268-16.319714c11.519798-10.87981 17.279698-24.127578 17.279697-39.679306V494.8483z"
        fill="#1C9BFF"/>
</svg>